#define yy1_width 16
#define yy1_height 16
#define yy1_x_hot 8
#define yy1_y_hot 8
static unsigned char yy1_bits[] = {
   0x20, 0x00, 0x18, 0x00, 0x0c, 0x00, 0x8e, 0x01, 0x8e, 0x01, 0x0f, 0x00,
   0x1f, 0x00, 0x3f, 0x00, 0xff, 0x03, 0xff, 0x07, 0xff, 0x0f, 0x7e, 0x0e,
   0x7e, 0x0e, 0xfc, 0x0f, 0xf8, 0x07, 0xe0, 0x03 };
