#define yy10_width 16
#define yy10_height 16
#define yy10_x_hot 8
#define yy10_y_hot 8
static unsigned char yy10_bits[] = {
   0xe0, 0x07, 0xf8, 0x1f, 0xfc, 0x3f, 0xfe, 0x7f, 0xfe, 0x43, 0xff, 0x81,
   0xff, 0x00, 0xe7, 0x18, 0xe7, 0x18, 0xff, 0x00, 0x7e, 0x00, 0x3c, 0x00,
   0x00, 0x00, 0x00, 0x00, 0x00, 0x00, 0x00, 0x00 };
