#define yy11_width 16
#define yy11_height 16
#define yy11_x_hot 8
#define yy11_y_hot 8
static unsigned char yy11_bits[] = {
   0xe0, 0x07, 0xf8, 0x1f, 0xfc, 0x23, 0xfe, 0x00, 0xfe, 0x00, 0x7f, 0x18,
   0x7f, 0x18, 0xff, 0x00, 0xff, 0x00, 0xe7, 0x01, 0xe7, 0x01, 0xfe, 0x00,
   0xfe, 0x00, 0x38, 0x00, 0x00, 0x00, 0x00, 0x00 };
