#define yy12_width 16
#define yy12_height 16
#define yy12_x_hot 8
#define yy12_y_hot 8
static unsigned char yy12_bits[] = {
   0xe0, 0x07, 0x78, 0x00, 0x7c, 0x00, 0x3e, 0x06, 0x3e, 0x06, 0x3f, 0x00,
   0x7f, 0x00, 0x7f, 0x00, 0xff, 0x01, 0xff, 0x01, 0xff, 0x03, 0x9e, 0x03,
   0x9e, 0x03, 0xfc, 0x01, 0xf8, 0x01, 0x00, 0x00 };
