#define yy2_width 16
#define yy2_height 16
#define yy2_x_hot 8
#define yy2_y_hot 8
static unsigned char yy2_bits[] = {
   0x00, 0x00, 0x00, 0x00, 0x04, 0x00, 0x62, 0x00, 0x62, 0x00, 0x03, 0x00,
   0x07, 0x00, 0x07, 0x06, 0x9f, 0x1f, 0xff, 0x1f, 0xff, 0x3f, 0xfe, 0x39,
   0xfe, 0x39, 0xfc, 0x1f, 0xf8, 0x1f, 0xe0, 0x07 };
