#define yy3_width 16
#define yy3_height 16
#define yy3_x_hot 8
#define yy3_y_hot 8
static unsigned char yy3_bits[] = {
   0x00, 0x00, 0x00, 0x00, 0x00, 0x00, 0x00, 0x00, 0x00, 0x00, 0x19, 0x00,
   0x19, 0x1c, 0x01, 0x7f, 0x01, 0x7f, 0xc7, 0x67, 0xff, 0x67, 0xfe, 0x7f,
   0xfe, 0x7f, 0xfc, 0x3f, 0xf8, 0x1f, 0xe0, 0x07 };
