#define yy4_width 16
#define yy4_height 16
#define yy4_x_hot 8
#define yy4_y_hot 8
static unsigned char yy4_bits[] = {
   0x00, 0x00, 0x00, 0x00, 0x00, 0x00, 0x00, 0x00, 0x00, 0x3c, 0x00, 0x7e,
   0x00, 0xff, 0x18, 0xe7, 0x18, 0xe7, 0x00, 0xff, 0x81, 0xff, 0xc2, 0x7f,
   0xfe, 0x7f, 0xfc, 0x3f, 0xf8, 0x1f, 0xe0, 0x07 };
