#define yy5_width 16
#define yy5_height 16
#define yy5_x_hot 8
#define yy5_y_hot 8
static unsigned char yy5_bits[] = {
   0x00, 0x00, 0x00, 0x00, 0x00, 0x1c, 0x00, 0x7f, 0x00, 0x7f, 0x80, 0xe7,
   0x80, 0xe7, 0x00, 0xff, 0x00, 0xff, 0x18, 0xfe, 0x18, 0xfe, 0x00, 0x7f,
   0x00, 0x7f, 0xc4, 0x3f, 0xf8, 0x1f, 0xe0, 0x07 };
