#define yy6_width 16
#define yy6_height 16
#define yy6_x_hot 8
#define yy6_y_hot 8
static unsigned char yy6_bits[] = {
   0x00, 0x00, 0x80, 0x1f, 0x80, 0x3f, 0xc0, 0x79, 0xc0, 0x79, 0xc0, 0xff,
   0x80, 0xff, 0x80, 0xff, 0x00, 0xfe, 0x00, 0xfe, 0x00, 0xfc, 0x60, 0x7c,
   0x60, 0x7c, 0x00, 0x3e, 0x00, 0x1e, 0xe0, 0x07 };
