#define yy7_width 16
#define yy7_height 16
#define yy7_x_hot 8
#define yy7_y_hot 8
static unsigned char yy7_bits[] = {
   0xc0, 0x07, 0xe0, 0x1f, 0xf0, 0x3f, 0x70, 0x7e, 0x70, 0x7e, 0xf0, 0xff,
   0xe0, 0xff, 0xc0, 0xff, 0x00, 0xfc, 0x00, 0xf8, 0x00, 0xf0, 0x80, 0x71,
   0x80, 0x71, 0x00, 0x30, 0x00, 0x18, 0x00, 0x04 };
