#define yy8_width 16
#define yy8_height 16
#define yy8_x_hot 8
#define yy8_y_hot 8
static unsigned char yy8_bits[] = {
   0xe0, 0x07, 0xf8, 0x1f, 0xf8, 0x3f, 0x9c, 0x7f, 0x9c, 0x7f, 0xfc, 0xff,
   0xf8, 0xff, 0xf8, 0xf9, 0x60, 0xe0, 0x00, 0xe0, 0x00, 0xc0, 0x00, 0x46,
   0x00, 0x46, 0x00, 0x20, 0x00, 0x00, 0x00, 0x00 };
