#define yy9_width 16
#define yy9_height 16
#define yy9_x_hot 8
#define yy9_y_hot 8
static unsigned char yy9_bits[] = {
   0xe0, 0x07, 0xf8, 0x1f, 0xfc, 0x3f, 0xfe, 0x7f, 0xfe, 0x7f, 0xe6, 0xff,
   0xe6, 0xe3, 0xfe, 0x80, 0xfe, 0x80, 0x38, 0x98, 0x00, 0x98, 0x00, 0x00,
   0x00, 0x00, 0x00, 0x00, 0x00, 0x00, 0x00, 0x00 };
